<svg width="1920" height="1080" viewBox="0 0 1920 1080" xmlns="http://www.w3.org/2000/svg">
  <defs>
    <filter id="glow">
      <feGaussianBlur stdDeviation="2.5" result="coloredBlur"/>
      <feMerge>
        <feMergeNode in="coloredBlur"/>
        <feMergeNode in="SourceGraphic"/>
      </feMerge>
    </filter>
  </defs>
  <g fill="none" stroke="black" stroke-width="3" stroke-linecap="round" stroke-linejoin="round"><path d="M 1380 980 L 1400 960 L 1420 980 L 1440 960 L 1460 980 L 1480 1000 L 1500 1000 L 1480 1020 L 1500 1020 L 1520 1020 L 1540 1020 L 1560 1020 L 1580 1000 L 1560 980" /><circle cx="1560" cy="980" r="4" fill="black" stroke="none" /><circle cx="1380" cy="980" r="4" fill="black" stroke="none" /><path d="M 540 620 L 560 600 L 580 580 L 580 560 L 600 580 L 620 560 L 620 540 L 640 520 L 640 500 L 620 520 L 600 520 L 600 500 L 600 480 L 620 460" /><circle cx="620" cy="460" r="4" fill="black" stroke="none" /><circle cx="540" cy="620" r="4" fill="black" stroke="none" /><path d="M 780 420 L 800 420 L 820 440 L 840 440 L 840 420 L 860 400 L 880 380 L 880 360 L 900 360 L 920 360 L 940 340 L 960 360 L 980 360 L 960 380 L 980 380 L 1000 360 L 1000 340 L 980 320 L 960 340 L 960 320 L 940 320 L 920 320 L 900 320 L 900 300 L 880 320" /><circle cx="880" cy="320" r="4" fill="black" stroke="none" /><circle cx="780" cy="420" r="4" fill="black" stroke="none" /><path d="M 1800 1040 L 1800 1020 L 1820 1000 L 1840 1000 L 1840 980 L 1860 1000 L 1880 980 L 1880 1000 L 1860 980 L 1840 960 L 1860 940 L 1880 960 L 1880 940 L 1880 920 L 1860 920 L 1840 900 L 1840 920 L 1820 920 L 1800 940 L 1780 940 L 1800 960" /><circle cx="1800" cy="960" r="4" fill="black" stroke="none" /><circle cx="1800" cy="1040" r="4" fill="black" stroke="none" /><path d="M 840 120 L 820 140 L 840 140 L 860 160 L 840 160 L 820 160 L 800 140 L 820 120 L 820 100 L 800 120 L 780 100 L 780 120 L 760 120 L 740 120 L 740 140 L 760 140 L 760 160 L 740 160 L 760 180 L 780 180 L 800 180 L 800 200 L 780 200 L 760 200 L 740 200 L 720 220 L 700 240 L 700 220 L 680 220 L 680 240 L 680 260 L 700 260 L 680 280 L 700 280 L 680 300 L 700 300 L 720 300" /><circle cx="720" cy="300" r="4" fill="black" stroke="none" /><circle cx="840" cy="120" r="4" fill="black" stroke="none" /><path d="M 1720 300 L 1720 280 L 1700 280 L 1680 260 L 1700 240 L 1720 240 L 1720 220 L 1740 200 L 1760 200 L 1760 180 L 1740 180 L 1720 180 L 1740 160 L 1760 160 L 1780 140 L 1760 140 L 1740 140 L 1740 120 L 1720 140 L 1700 160 L 1700 140" /><circle cx="1700" cy="140" r="4" fill="black" stroke="none" /><circle cx="1720" cy="300" r="4" fill="black" stroke="none" /><path d="M 640 100 L 620 120 L 640 140 L 660 120 L 660 140 L 640 120 L 660 100 L 680 100 L 660 80 L 640 80 L 620 100 L 600 100 L 600 80 L 620 60 L 620 40 L 640 40 L 660 40 L 680 20 L 700 20 L 720 20 L 740 20 L 720 40 L 720 60 L 740 80 L 720 80 L 700 60 L 700 80 L 700 100 L 680 80 L 680 60 L 660 60" /><circle cx="660" cy="60" r="4" fill="black" stroke="none" /><circle cx="640" cy="100" r="4" fill="black" stroke="none" /><path d="M 1700 920 L 1720 920 L 1740 920 L 1760 900 L 1760 880 L 1780 880 L 1800 880 L 1780 900 L 1800 920 L 1820 900 L 1840 880 L 1840 860 L 1820 840 L 1820 820 L 1840 840 L 1840 820 L 1860 820 L 1880 800 L 1860 800 L 1880 780 L 1860 780 L 1880 760 L 1880 740 L 1860 740 L 1840 760 L 1820 740 L 1820 720" /><circle cx="1820" cy="720" r="4" fill="black" stroke="none" /><circle cx="1700" cy="920" r="4" fill="black" stroke="none" /><path d="M 1080 1060 L 1100 1060 L 1100 1040 L 1080 1040 L 1060 1020 L 1080 1000 L 1060 1000 L 1040 1000 L 1040 1020 L 1020 1020 L 1000 1020 L 1000 1040 L 1020 1040 L 1040 1040" /><circle cx="1040" cy="1040" r="4" fill="black" stroke="none" /><circle cx="1080" cy="1060" r="4" fill="black" stroke="none" /><path d="M 1040 440 L 1020 420 L 1020 440 L 1040 420 L 1060 440 L 1060 460 L 1080 460 L 1100 460 L 1080 440 L 1080 420 L 1080 400 L 1060 400 L 1060 380 L 1040 360 L 1060 360 L 1040 340 L 1060 320 L 1080 320 L 1100 340 L 1120 360 L 1140 360 L 1140 340 L 1160 340 L 1180 340 L 1200 340 L 1180 360 L 1200 380 L 1220 380 L 1200 400 L 1220 400 L 1240 400 L 1220 420 L 1240 420 L 1260 400" /><circle cx="1260" cy="400" r="4" fill="black" stroke="none" /><circle cx="1040" cy="440" r="4" fill="black" stroke="none" /><path d="M 740 60 L 760 60 L 780 60 L 800 60 L 780 80 L 800 80 L 820 80 L 820 60 L 840 60 L 820 40 L 800 40 L 820 20 L 800 20 L 780 20" /><circle cx="780" cy="20" r="4" fill="black" stroke="none" /><circle cx="740" cy="60" r="4" fill="black" stroke="none" /><path d="M 60 1040 L 60 1020 L 40 1020 L 20 1020 L 20 1040" /><circle cx="20" cy="1040" r="4" fill="black" stroke="none" /><circle cx="60" cy="1040" r="4" fill="black" stroke="none" /><path d="M 440 1000 L 420 980 L 440 980 L 440 960 L 440 940 L 460 940 L 480 920 L 460 900 L 440 880 L 420 900 L 420 920 L 440 920 L 420 940 L 400 960" /><circle cx="400" cy="960" r="4" fill="black" stroke="none" /><circle cx="440" cy="1000" r="4" fill="black" stroke="none" /><path d="M 380 280 L 400 260 L 420 260 L 440 260 L 420 240 L 400 240 L 380 240 L 360 260 L 360 240 L 360 220 L 380 220 L 380 200 L 360 200 L 340 220 L 340 240 L 320 220 L 340 200 L 320 180 L 320 160 L 320 140 L 300 160 L 280 180" /><circle cx="280" cy="180" r="4" fill="black" stroke="none" /><circle cx="380" cy="280" r="4" fill="black" stroke="none" /><path d="M 200 1020 L 200 1040 L 220 1040 L 220 1020 L 240 1000 L 220 980 L 240 980 L 260 1000 L 280 1000 L 280 1020 L 260 1020 L 280 1040 L 300 1020 L 320 1000 L 340 1000 L 320 980 L 320 960 L 340 980 L 360 980" /><circle cx="360" cy="980" r="4" fill="black" stroke="none" /><circle cx="200" cy="1020" r="4" fill="black" stroke="none" /><path d="M 500 300 L 500 320 L 520 320 L 540 340 L 560 320 L 560 300 L 580 300 L 600 280 L 580 260 L 580 240 L 600 220 L 620 220 L 620 200 L 600 180 L 580 180 L 560 200 L 560 180 L 540 200 L 540 180 L 520 180 L 520 160 L 540 140 L 540 120 L 520 120 L 500 120 L 500 100 L 480 100 L 480 120 L 460 120 L 440 120 L 420 120 L 420 100 L 440 100 L 440 80 L 440 60 L 420 60 L 440 40 L 440 20 L 460 40 L 460 60 L 480 60 L 500 60" /><circle cx="500" cy="60" r="4" fill="black" stroke="none" /><circle cx="500" cy="300" r="4" fill="black" stroke="none" /><path d="M 900 440 L 900 420 L 920 440 L 920 460 L 920 480 L 940 480 L 940 460 L 960 460 L 980 440 L 980 460 L 960 480 L 980 500 L 1000 480 L 1020 480 L 1040 480 L 1020 460 L 1000 440 L 980 420 L 1000 400 L 1020 400 L 1020 380 L 1040 400" /><circle cx="1040" cy="400" r="4" fill="black" stroke="none" /><circle cx="900" cy="440" r="4" fill="black" stroke="none" /><path d="M 980 640 L 1000 640 L 1020 660 L 1020 640 L 1020 620 L 1040 620 L 1060 620 L 1080 640 L 1060 640 L 1080 660 L 1060 660 L 1060 680 L 1040 700 L 1040 680 L 1020 680 L 1000 700" /><circle cx="1000" cy="700" r="4" fill="black" stroke="none" /><circle cx="980" cy="640" r="4" fill="black" stroke="none" /><path d="M 1760 800 L 1780 780 L 1780 760 L 1800 760 L 1780 740 L 1760 720 L 1740 740 L 1720 740 L 1740 760 L 1720 760 L 1700 760 L 1680 760 L 1660 760 L 1640 780 L 1640 760 L 1660 740 L 1660 720 L 1660 700 L 1680 720 L 1700 720" /><circle cx="1700" cy="720" r="4" fill="black" stroke="none" /><circle cx="1760" cy="800" r="4" fill="black" stroke="none" /><path d="M 940 140 L 940 120 L 920 140 L 900 140 L 880 160 L 900 160 L 920 180 L 940 200 L 960 200 L 960 220 L 960 240 L 980 220 L 1000 220 L 1000 200 L 1020 180 L 1020 160 L 1000 180 L 980 180 L 980 160 L 1000 140 L 1000 120 L 980 140 L 960 160 L 960 140 L 980 120 L 980 100 L 960 100 L 960 80 L 980 80 L 980 60 L 1000 60 L 1020 40 L 1020 20 L 1040 40 L 1060 40 L 1040 60 L 1040 80 L 1060 100 L 1040 120 L 1040 140 L 1060 140 L 1060 160 L 1040 180 L 1060 180 L 1040 160" /><circle cx="1040" cy="160" r="4" fill="black" stroke="none" /><circle cx="940" cy="140" r="4" fill="black" stroke="none" /><path d="M 880 1020 L 900 1000 L 900 980 L 920 960 L 920 980 L 920 1000 L 900 1020 L 900 1040 L 880 1040 L 860 1020 L 840 1040 L 820 1040 L 840 1020 L 840 1000 L 840 980 L 820 1000 L 800 1020 L 800 1040 L 780 1020 L 780 1000 L 760 1020 L 740 1020 L 720 1000 L 740 1000 L 740 980 L 760 960 L 780 960 L 800 940 L 820 920 L 820 940 L 840 940 L 860 920 L 860 940 L 880 920 L 900 920 L 920 920 L 940 920 L 920 900 L 920 880 L 940 880" /><circle cx="940" cy="880" r="4" fill="black" stroke="none" /><circle cx="880" cy="1020" r="4" fill="black" stroke="none" /><path d="M 500 680 L 480 700 L 500 700 L 520 720 L 520 700 L 520 680 L 540 660 L 520 660 L 500 660 L 480 680 L 460 700 L 440 700 L 460 720" /><circle cx="460" cy="720" r="4" fill="black" stroke="none" /><circle cx="500" cy="680" r="4" fill="black" stroke="none" /><path d="M 1580 780 L 1600 780 L 1620 760 L 1620 780 L 1600 760 L 1600 740 L 1620 740 L 1600 720 L 1620 700 L 1620 680 L 1600 660 L 1580 680 L 1560 700 L 1560 680 L 1580 660 L 1560 640 L 1560 620 L 1560 600 L 1540 580 L 1520 560 L 1500 540 L 1520 540 L 1540 520 L 1520 500 L 1500 500 L 1480 520 L 1480 500 L 1480 480 L 1460 480 L 1440 460 L 1440 440 L 1420 460 L 1400 440 L 1380 440 L 1360 420 L 1380 420 L 1380 400 L 1380 380 L 1360 380 L 1340 380 L 1320 400 L 1340 400 L 1340 420" /><circle cx="1340" cy="420" r="4" fill="black" stroke="none" /><circle cx="1580" cy="780" r="4" fill="black" stroke="none" /><path d="M 720 860 L 740 880 L 740 900 L 720 880 L 700 860 L 720 840 L 700 820 L 720 800 L 740 800 L 760 800 L 780 780 L 760 780 L 780 800 L 800 780 L 820 800 L 840 800 L 820 820 L 800 820 L 800 840 L 800 860 L 820 860 L 840 860 L 820 880 L 840 880" /><circle cx="840" cy="880" r="4" fill="black" stroke="none" /><circle cx="720" cy="860" r="4" fill="black" stroke="none" /><path d="M 1520 340 L 1520 360 L 1540 380 L 1540 360 L 1540 340 L 1560 320 L 1580 320 L 1600 320 L 1600 300 L 1620 300 L 1640 280 L 1660 280 L 1660 300 L 1680 300 L 1660 320 L 1640 340 L 1620 340 L 1620 360 L 1620 380 L 1640 400 L 1660 380 L 1680 380 L 1700 360 L 1720 380 L 1740 380 L 1740 400 L 1740 420 L 1720 420 L 1700 440 L 1720 460 L 1720 480 L 1700 460 L 1680 480 L 1660 460" /><circle cx="1660" cy="460" r="4" fill="black" stroke="none" /><circle cx="1520" cy="340" r="4" fill="black" stroke="none" /><path d="M 740 100 L 720 120 L 720 140 L 700 160 L 700 140 L 720 160 L 700 180 L 680 200 L 660 220 L 660 200 L 640 180" /><circle cx="640" cy="180" r="4" fill="black" stroke="none" /><circle cx="740" cy="100" r="4" fill="black" stroke="none" /><path d="M 1540 240 L 1560 240 L 1580 240 L 1600 240 L 1620 220 L 1640 200 L 1620 200 L 1600 200 L 1620 180 L 1640 180 L 1660 160 L 1660 140 L 1660 120 L 1640 100 L 1660 100 L 1680 80 L 1660 80 L 1660 60 L 1640 60 L 1620 40 L 1620 20 L 1600 20 L 1580 20 L 1560 20 L 1540 40" /><circle cx="1540" cy="40" r="4" fill="black" stroke="none" /><circle cx="1540" cy="240" r="4" fill="black" stroke="none" /><path d="M 1040 660" /><circle cx="1040" cy="660" r="4" fill="black" stroke="none" /><circle cx="1040" cy="660" r="4" fill="black" stroke="none" /><path d="M 1260 840 L 1240 820 L 1240 800 L 1220 820 L 1200 800 L 1180 820 L 1180 800 L 1200 780 L 1180 780 L 1160 760 L 1140 760 L 1120 760 L 1100 780 L 1120 800 L 1140 800" /><circle cx="1140" cy="800" r="4" fill="black" stroke="none" /><circle cx="1260" cy="840" r="4" fill="black" stroke="none" /><path d="M 1420 400 L 1420 380 L 1440 380 L 1420 360 L 1400 340 L 1380 320 L 1380 340 L 1360 340 L 1340 340 L 1320 340 L 1320 360 L 1300 380 L 1300 400 L 1300 420 L 1320 440 L 1320 460 L 1300 480 L 1320 480 L 1340 460 L 1340 480 L 1360 480 L 1380 500 L 1380 520 L 1360 520 L 1360 540 L 1380 540 L 1400 540 L 1420 540 L 1440 540 L 1420 520 L 1440 520 L 1460 540 L 1480 560 L 1500 580 L 1480 580 L 1480 600 L 1480 620 L 1500 620 L 1520 640 L 1500 640 L 1500 660 L 1520 660 L 1520 680 L 1520 700 L 1500 720 L 1500 740 L 1500 760 L 1520 780" /><circle cx="1520" cy="780" r="4" fill="black" stroke="none" /><circle cx="1420" cy="400" r="4" fill="black" stroke="none" /><path d="M 180 1000 L 180 980 L 160 1000 L 140 1020 L 160 1020 L 160 1040 L 140 1040 L 120 1040 L 100 1040 L 120 1020 L 100 1000 L 100 980 L 100 960 L 100 940 L 80 920 L 60 940 L 40 960 L 20 940 L 40 920 L 20 920 L 20 900 L 40 900 L 40 880 L 40 860 L 20 860 L 20 840 L 40 840 L 60 840" /><circle cx="60" cy="840" r="4" fill="black" stroke="none" /><circle cx="180" cy="1000" r="4" fill="black" stroke="none" /><path d="M 560 480 L 560 500 L 560 520 L 560 540 L 540 540 L 520 540 L 500 520 L 480 500 L 500 500 L 500 480 L 480 480 L 460 460 L 440 460 L 440 480 L 420 480 L 400 460 L 380 440 L 400 440 L 420 420 L 420 400 L 440 400 L 460 400 L 460 380 L 440 360 L 460 340 L 460 320 L 440 320 L 420 340 L 400 340 L 420 320 L 400 320 L 380 300 L 400 300 L 420 300 L 400 280 L 420 280 L 440 280 L 460 280 L 460 260 L 460 240 L 460 220 L 480 220 L 460 200 L 480 180 L 500 160 L 500 180 L 500 200" /><circle cx="500" cy="200" r="4" fill="black" stroke="none" /><circle cx="560" cy="480" r="4" fill="black" stroke="none" /><path d="M 940 520 L 920 540 L 900 520 L 880 520 L 900 540 L 900 560 L 900 580 L 920 560 L 940 560 L 960 560 L 980 560 L 960 580 L 980 580 L 980 600 L 1000 600 L 980 620 L 960 600 L 940 600 L 920 600 L 900 600 L 880 600 L 860 600" /><circle cx="860" cy="600" r="4" fill="black" stroke="none" /><circle cx="940" cy="520" r="4" fill="black" stroke="none" /><path d="M 1520 0 L 1540 0 L 1560 0 L 1580 0 L 1600 0 L 1620 0 L 1640 20 L 1660 40 L 1680 40 L 1700 40 L 1700 20" /><circle cx="1700" cy="20" r="4" fill="black" stroke="none" /><circle cx="1520" cy="0" r="4" fill="black" stroke="none" /><path d="M 820 240 L 840 220 L 860 200 L 860 220 L 860 240 L 880 260 L 900 240 L 920 240 L 920 260 L 940 260 L 960 260 L 980 260 L 1000 260 L 1000 280 L 1000 300 L 1020 280 L 1020 260 L 1040 240 L 1040 220 L 1060 200 L 1080 200 L 1100 200 L 1120 200 L 1140 200 L 1160 200 L 1180 180 L 1180 160 L 1160 140 L 1180 140" /><circle cx="1180" cy="140" r="4" fill="black" stroke="none" /><circle cx="820" cy="240" r="4" fill="black" stroke="none" /><path d="M 520 20 L 540 20 L 560 20 L 580 20 L 600 20 L 600 40 L 580 60 L 560 60 L 540 80 L 560 100 L 580 80 L 580 100 L 600 120 L 600 140 L 580 140 L 600 160 L 620 160 L 640 160 L 660 160 L 680 140 L 700 120" /><circle cx="700" cy="120" r="4" fill="black" stroke="none" /><circle cx="520" cy="20" r="4" fill="black" stroke="none" /><path d="M 300 40 L 320 20 L 340 20 L 320 40 L 300 60 L 320 60 L 340 60 L 340 80 L 360 80 L 380 100 L 360 100 L 360 120 L 360 140 L 380 160 L 360 160 L 340 180" /><circle cx="340" cy="180" r="4" fill="black" stroke="none" /><circle cx="300" cy="40" r="4" fill="black" stroke="none" /><path d="M 1280 540 L 1260 540 L 1280 520 L 1260 520 L 1260 500 L 1280 480 L 1300 500 L 1320 500 L 1340 500 L 1320 520 L 1340 540 L 1320 540 L 1300 520 L 1300 540 L 1280 560 L 1300 560 L 1300 580 L 1280 600 L 1300 620 L 1280 620 L 1260 640 L 1240 640" /><circle cx="1240" cy="640" r="4" fill="black" stroke="none" /><circle cx="1280" cy="540" r="4" fill="black" stroke="none" /><path d="M 1760 280 L 1740 300 L 1740 320 L 1760 340 L 1780 340 L 1780 360 L 1800 340 L 1800 320 L 1820 300 L 1840 280 L 1860 280 L 1840 260 L 1840 240 L 1860 260 L 1880 260 L 1860 240 L 1880 240 L 1880 220 L 1860 220 L 1840 220 L 1820 220 L 1800 220 L 1820 200 L 1800 180 L 1820 180 L 1840 180 L 1820 160 L 1840 140 L 1860 160 L 1860 140 L 1880 120 L 1860 120 L 1840 100" /><circle cx="1840" cy="100" r="4" fill="black" stroke="none" /><circle cx="1760" cy="280" r="4" fill="black" stroke="none" /><path d="M 360 500 L 340 480 L 340 500 L 320 520 L 300 500 L 280 520 L 300 540 L 300 560 L 320 540 L 320 560 L 340 560" /><circle cx="340" cy="560" r="4" fill="black" stroke="none" /><circle cx="360" cy="500" r="4" fill="black" stroke="none" /><path d="M 1740 640 L 1760 640 L 1780 640 L 1760 620 L 1740 600 L 1720 620 L 1700 640 L 1680 640 L 1660 640 L 1680 660 L 1680 680 L 1660 680 L 1640 660 L 1640 680 L 1640 700 L 1640 720" /><circle cx="1640" cy="720" r="4" fill="black" stroke="none" /><circle cx="1740" cy="640" r="4" fill="black" stroke="none" /><path d="M 440 520 L 420 540 L 420 520 L 440 540 L 460 540 L 460 560 L 440 560 L 420 580 L 420 600 L 420 620 L 400 600 L 380 580 L 360 580 L 380 560 L 400 560 L 400 540 L 380 540 L 360 540 L 380 520 L 360 520 L 380 500 L 380 480 L 360 460 L 360 440 L 380 420 L 400 400 L 400 380" /><circle cx="400" cy="380" r="4" fill="black" stroke="none" /><circle cx="440" cy="520" r="4" fill="black" stroke="none" /><path d="M 240 480 L 240 500 L 220 500 L 220 480 L 200 480 L 180 480 L 160 480 L 180 500 L 160 500 L 140 500 L 120 520 L 120 500" /><circle cx="120" cy="500" r="4" fill="black" stroke="none" /><circle cx="240" cy="480" r="4" fill="black" stroke="none" /><path d="M 1380 640 L 1360 640 L 1340 640 L 1340 620 L 1360 620 L 1360 600 L 1340 580 L 1360 580 L 1380 580 L 1380 600 L 1400 620 L 1420 640" /><circle cx="1420" cy="640" r="4" fill="black" stroke="none" /><circle cx="1380" cy="640" r="4" fill="black" stroke="none" /><path d="M 740 1040 L 720 1020 L 700 1000 L 700 980 L 680 1000 L 660 1020 L 660 1000 L 660 980 L 680 960 L 700 960 L 720 940 L 720 920 L 700 920 L 680 920 L 700 940 L 680 940 L 660 920 L 640 920 L 640 940 L 640 960 L 620 960 L 600 980 L 580 980 L 580 1000 L 560 1020 L 580 1020 L 580 1040 L 600 1020 L 620 1020 L 620 1040 L 640 1040 L 660 1040" /><circle cx="660" cy="1040" r="4" fill="black" stroke="none" /><circle cx="740" cy="1040" r="4" fill="black" stroke="none" /><path d="M 1320 560 L 1340 560 L 1360 560 L 1380 560 L 1400 560 L 1400 580 L 1420 580 L 1440 580 L 1460 560 L 1460 580 L 1440 600 L 1460 620 L 1440 620" /><circle cx="1440" cy="620" r="4" fill="black" stroke="none" /><circle cx="1320" cy="560" r="4" fill="black" stroke="none" /><path d="M 1760 380 L 1740 360 L 1720 340 L 1700 340 L 1680 340 L 1660 360 L 1640 380 L 1620 400 L 1620 420 L 1620 440 L 1620 460 L 1600 480 L 1620 480 L 1600 460 L 1600 440 L 1580 440 L 1560 440 L 1540 460 L 1560 460 L 1580 480" /><circle cx="1580" cy="480" r="4" fill="black" stroke="none" /><circle cx="1760" cy="380" r="4" fill="black" stroke="none" /><path d="M 660 680 L 660 660 L 640 640 L 660 640 L 640 660 L 640 680 L 620 680 L 620 700 L 640 700 L 660 700 L 660 720 L 660 740 L 640 740 L 660 760 L 640 760 L 660 780 L 680 780 L 700 760 L 700 780 L 720 780 L 720 760 L 720 740 L 720 720 L 700 700 L 720 680 L 740 680 L 760 660 L 760 640 L 780 640 L 800 620 L 780 600 L 800 580 L 820 580 L 840 600 L 840 620 L 820 640 L 820 620 L 800 600 L 780 580 L 760 580" /><circle cx="760" cy="580" r="4" fill="black" stroke="none" /><circle cx="660" cy="680" r="4" fill="black" stroke="none" /><path d="M 1200 260 L 1220 240 L 1240 240 L 1220 220 L 1240 220 L 1260 220 L 1280 220 L 1260 240 L 1280 240 L 1280 260 L 1260 260 L 1240 280 L 1240 300 L 1220 300 L 1200 280 L 1180 280 L 1160 260 L 1140 240 L 1160 220 L 1180 200 L 1200 180 L 1200 160 L 1200 140 L 1220 120 L 1200 100 L 1220 80 L 1220 60 L 1220 40 L 1200 60 L 1180 80 L 1180 60 L 1160 40 L 1140 60 L 1120 80 L 1100 60 L 1080 40" /><circle cx="1080" cy="40" r="4" fill="black" stroke="none" /><circle cx="1200" cy="260" r="4" fill="black" stroke="none" /><path d="M 840 580 L 860 560 L 860 540 L 840 540 L 860 520 L 880 500 L 860 480 L 880 480 L 900 500 L 920 500 L 940 500 L 960 520 L 980 520 L 1000 540 L 1020 560 L 1020 540" /><circle cx="1020" cy="540" r="4" fill="black" stroke="none" /><circle cx="840" cy="580" r="4" fill="black" stroke="none" /><path d="M 1140 840 L 1120 820 L 1100 820 L 1100 840 L 1100 860 L 1080 880 L 1080 900 L 1060 900 L 1040 880 L 1060 860 L 1040 860 L 1060 840 L 1040 820 L 1040 800" /><circle cx="1040" cy="800" r="4" fill="black" stroke="none" /><circle cx="1140" cy="840" r="4" fill="black" stroke="none" /><path d="M 1780 220 L 1760 240 L 1740 220 L 1740 240 L 1740 260 L 1720 260 L 1740 280 L 1760 260 L 1780 280 L 1800 300 L 1780 300 L 1800 280 L 1800 260 L 1820 280 L 1840 300 L 1840 320 L 1860 320 L 1880 340 L 1880 320 L 1860 340" /><circle cx="1860" cy="340" r="4" fill="black" stroke="none" /><circle cx="1780" cy="220" r="4" fill="black" stroke="none" /><path d="M 880 780 L 860 800 L 880 800 L 900 800 L 920 800 L 940 800 L 960 800 L 940 780 L 960 780 L 960 760 L 980 780 L 980 760 L 960 740 L 980 740 L 1000 720 L 1020 720 L 1040 720 L 1020 700 L 1000 680 L 980 660 L 960 660" /><circle cx="960" cy="660" r="4" fill="black" stroke="none" /><circle cx="880" cy="780" r="4" fill="black" stroke="none" /></g></svg>